<?xml version="1.0" encoding="utf-8"?>
<!-- Generator: Adobe Illustrator 23.0.1, SVG Export Plug-In . SVG Version: 6.00 Build 0)  -->
<svg version="1.1" id="Layer_1" xmlns="http://www.w3.org/2000/svg" xmlns:xlink="http://www.w3.org/1999/xlink" x="0px" y="0px"
	 viewBox="0 0 1280 450.2" style="enable-background:new 0 0 1280 450.2;" xml:space="preserve">
<style type="text/css">
	.st0{fill:#FFFFFF;}
</style>
<g>
	<g>
		<path class="st0" d="M4.4,444V123.9h90.6c112.1,0,168.9,52.5,168.9,156.1c0,49.1-15.8,89.1-47.1,119c-31.2,29.8-73.3,45-125.3,45
			H4.4z M91.9,401.4c39.2,0,70-10.5,91.6-31.3c21.6-20.7,32.5-50.7,32.5-89.1c0-77-39.9-114.4-122-114.4H50.4v234.8H91.9z"/>
		<path class="st0" d="M9.2,439.1V128.8h85.7c109.4,0,164,50.4,164,151.3c0,47.9-15.2,86.4-45.6,115.5c-30.4,29.1-71,43.6-122,43.6
			H9.2z M45.6,161.7v244.6h46.3c40.7,0,72.4-10.9,95-32.7c22.6-21.8,34-52.7,34-92.6c0-79.5-42.3-119.2-126.8-119.2H45.6z"/>
		<path class="st0" d="M310.4,444V212.7h45.2v29.6c4.4-7.6,9.8-14,16-19.2c11.2-9.4,24-14.2,38-14.2c10,0,17.5,1.1,23.1,3.4l3,1.2
			v49.9l-7.8-6c-5.3-4.1-13.3-6.1-23.9-6.1c-13.6,0-24.7,6.3-34,19.4c-9.5,13.4-14.4,32.1-14.4,55.6V444H310.4z"/>
		<path class="st0" d="M430.8,253.5c-6.2-4.8-15.1-7.1-26.8-7.1c-15.1,0-27.8,7.1-38,21.4c-10.2,14.3-15.3,33.8-15.3,58.4v113h-35.5
			V217.5h35.5v45.7h0.9c5-15.6,12.8-27.7,23.2-36.5c10.4-8.7,22-13.1,34.8-13.1c9.2,0,16.3,1,21.2,3V253.5z"/>
		<path class="st0" d="M444.9,448.8c-8,0-14.8-2.9-20.5-8.6c-5.6-5.7-8.4-12.6-8.4-20.5c0-7.9,2.8-14.8,8.4-20.6
			c5.6-5.8,12.5-8.7,20.5-8.7c8.1,0,15.1,2.9,20.8,8.7c5.7,5.8,8.5,12.7,8.5,20.6c0,7.9-2.9,14.9-8.6,20.5
			C459.9,445.9,453,448.8,444.9,448.8z"/>
		<path class="st0" d="M444.9,443.9c-6.6,0-12.3-2.4-17-7.1c-4.7-4.8-7-10.5-7-17.1c0-6.6,2.3-12.4,7-17.2c4.7-4.8,10.4-7.2,17-7.2
			c6.8,0,12.6,2.4,17.3,7.2c4.8,4.8,7.1,10.6,7.1,17.2c0,6.6-2.4,12.3-7.1,17.1C457.4,441.5,451.7,443.9,444.9,443.9z"/>
		<path class="st0" d="M730,444l-32.9-87H572.3l-30.9,87h-51l122.8-320.1h44.3L780.7,444H730z M681.6,314.6l-46.3-125.7
			c-0.2-0.7-0.5-1.4-0.7-2.2c-0.2,0.8-0.5,1.5-0.8,2.2l-45.9,125.7H681.6z"/>
		<path class="st0" d="M773.6,439.1h-40.3l-32.9-87H568.9l-30.9,87h-40.5l119-310.3h37.7L773.6,439.1z M688.6,319.5l-48.7-132.2
			c-1.6-4.3-3.2-11.3-4.8-20.8h-0.9c-1.4,8.8-3.1,15.7-5,20.8L581,319.5H688.6z"/>
		<path class="st0" d="M809.7,444V212.7h45.2V444H809.7z M832.7,166.1c-7.6,0-14.2-2.6-19.6-7.9c-5.4-5.3-8.2-12-8.2-19.9
			c0-8,2.7-14.7,8.2-20c5.4-5.3,12-8,19.6-8c7.8,0,14.5,2.7,19.9,8c5.5,5.3,8.3,12.1,8.3,20c0,7.7-2.8,14.3-8.3,19.7
			C847.2,163.4,840.5,166.1,832.7,166.1z"/>
		<path class="st0" d="M832.7,161.3c-6.4,0-11.8-2.2-16.2-6.5c-4.5-4.3-6.7-9.8-6.7-16.4c0-6.6,2.2-12.2,6.7-16.6
			c4.5-4.4,9.9-6.6,16.2-6.6c6.5,0,12,2.2,16.6,6.6c4.5,4.4,6.8,9.9,6.8,16.6c0,6.3-2.3,11.8-6.8,16.2
			C844.7,159,839.2,161.3,832.7,161.3z M850,439.1h-35.5V217.5H850V439.1z"/>
		<path class="st0" d="M917,444V212.7h45.2v29.6c4.4-7.6,9.8-14,16-19.2c11.2-9.4,24-14.2,38-14.2c10,0,17.5,1.1,23.1,3.4l3,1.2
			v49.9l-7.8-6c-5.3-4.1-13.3-6.1-23.9-6.1c-13.6,0-24.7,6.3-34,19.4c-9.5,13.4-14.4,32.1-14.4,55.6V444H917z"/>
		<path class="st0" d="M1037.4,253.5c-6.2-4.8-15.1-7.1-26.8-7.1c-15.1,0-27.8,7.1-38,21.4c-10.2,14.3-15.3,33.8-15.3,58.4v113
			h-35.5V217.5h35.5v45.7h0.9c5-15.6,12.8-27.7,23.2-36.5c10.4-8.7,22-13.1,34.8-13.1c9.2,0,16.3,1,21.2,3V253.5z"/>
	</g>
	<circle class="st0" cx="1228.2" cy="200.8" r="46.1"/>
	<circle class="st0" cx="1150.1" cy="73" r="46.1"/>
	<circle class="st0" cx="979.8" cy="51.7" r="46.1"/>
	<circle class="st0" cx="1150.1" cy="342.7" r="46.1"/>
</g>
</svg>
